<svg height="512pt" viewBox="-33 0 512 512" width="512pt" xmlns="http://www.w3.org/2000/svg"><path d="m164.996094 231.148438 53.820312-58.933594-22.117187-20.203125-52.863281 57.886719-17.15625-17.230469 54.039062-59.183594-22.121094-20.199219-53.078125 58.128906-17.152343-17.226562 54.203124-59.375-22.125-20.195312-53.242187 58.316406-17.164063-17.238282 54.402344-59.550781-22.117187-20.203125-50.339844 55.109375c-1.359375-4.226562-2.058594-8.6875-2.027344-13.253906.082031-11.277344 4.554688-21.847656 12.589844-29.757813l26.527344-27.078124-21.398438-20.960938-26.246093 26.792969c-13.679688 13.519531-21.289063 31.550781-21.429688 50.785156-.136719 19.289063 7.246094 37.472656 20.839844 51.246094l244.519531 245.582031c-9.164063 13.730469-14.324219 29.773438-14.773437 46.675781-.632813 23.648438 7.984374 46.121094 24.257812 63.289063 17.386719 18.339844 40.816406 27.585937 64.289062 27.585937 21.886719 0 43.808594-8.039062 60.90625-24.25 35.4375-33.597656 36.933594-89.757812 3.335938-125.195312-16.273438-17.164063-38.257812-26.964844-61.90625-27.597657-20.242188-.539062-39.597656 5.710938-55.519531 17.714844zm115.535156 190.730468c.414062-15.644531 6.902344-30.195312 18.261719-40.964844 10.96875-10.402343 25.21875-16.074218 40.277343-16.074218.53125 0 1.066407.007812 1.601563.019531 15.648437.417969 30.195313 6.902344 40.964844 18.261719s16.472656 26.234375 16.054687 41.882812c-.417968 15.644532-6.902344 30.195313-18.261718 40.964844-11.359376 10.769531-26.222657 16.4375-41.878907 16.054688-15.648437-.417969-30.199219-6.90625-40.96875-18.261719-10.769531-11.359375-16.46875-26.234375-16.050781-41.882813zm0 0"/><path d="m167.304688 360.023438c-.289063-.28125-.5625-.570313-.855469-.847657-35.433594-33.597656-91.597657-32.097656-125.191407 3.335938-33.597656 35.4375-32.101562 91.597656 3.335938 125.195312 16.578125 15.71875 38.109375 24.292969 60.867188 24.292969.804687 0 1.613281-.011719 2.421874-.03125 23.644532-.628906 45.628907-10.433594 61.90625-27.597656 16.273438-17.167969 24.890626-39.640625 24.257813-63.289063-.339844-12.761719-3.375-25.03125-8.773437-36.191406l22.648437-25.421875-21.214844-21.21875zm-19.253907 103.738281c-10.769531 11.359375-25.320312 17.84375-40.96875 18.261719-15.660156.398437-30.519531-5.285157-41.878906-16.054688s-17.84375-25.316406-18.261719-40.964844c-.417968-15.648437 5.285156-30.519531 16.054688-41.882812 10.769531-11.355469 25.316406-17.84375 40.964844-18.261719.535156-.011719 1.066406-.019531 1.601562-.019531 15.058594 0 29.308594 5.675781 40.277344 16.074218 11.359375 10.769532 17.84375 25.320313 18.261718 40.96875.417969 15.644532-5.28125 30.519532-16.050781 41.878907zm0 0"/><path d="m446.855469 59.953125c-1.285157-19.246094-9.992188-36.832031-24.515625-49.523437l-11.101563-9.699219-206.082031 227.542969 63.339844 63.335937 160.5625-179.222656.082031-.09375c12.710937-14.507813 19-33.097657 17.714844-52.339844zm0 0"/></svg>