<svg id="Layer_1_1_" enable-background="new 0 0 64 64" height="512" viewBox="0 0 64 64" width="512" xmlns="http://www.w3.org/2000/svg"><g><path d="m62.649 14.239c-.175-.149-.398-.211-.626-.216-2.555-7.705-9.838-13.023-18.023-13.023-10.477 0-19 8.523-19 19 0 .416.04.83.067 1.244-4.319 1.328-8.072 4.082-10.626 7.812-1.388.264-2.441 1.481-2.441 2.944h-.056c-3.431 0-6.516 1.906-8.05 4.975l-.789 1.578c-.155.31-.138.678.044.973s.504.474.851.474v17.057c-1.132.215-2.061 1.064-2.349 2.216l-.621 2.485c-.075.299-.007.615.182.857.189.243.48.385.788.385h18.586c1.331 0 2.414-1.083 2.414-2.414 0-.637-.258-1.259-.707-1.707l-1.586-1.586c-.187-.188-.442-.293-.707-.293h-9.201c1.837-2.495 4.731-4 7.909-4h1.292c.552 0 1-.447 1-1h2c.552 0 1-.447 1-1v-10c0-.155-.036-.309-.105-.447l-.908-1.816c-.114-3.048-2.18-5.603-4.987-6.442v-.295c0-.14-.023-.274-.041-.409l7.746-4.648.325 1.299c.071.282.261.521.521.651.14.071.295.107.449.107.13 0 .26-.025.383-.076l.144-.06c11.114-4.576 22.761-7.898 34.652-9.881.475-.086.821-.5.821-.983v-3c0-.293-.128-.57-.351-.761zm-18.649-11.239c7.203 0 13.628 4.599 16.014 11.309-11.102 1.785-22.106 4.547-32.803 8.223-.125-.837-.211-1.681-.211-2.532 0-9.374 7.626-17 17-17zm-37.949 37 .895 17h-.946v-17zm12.949 4h-8.874c2.358-.661 4.788-1 7.259-1h1.615zm-3 4h-7.525l-.105-2h7.63zm4.879 12.294c.077.076.121.183.121.292 0 .228-.186.414-.414.414h-17.305l.311-1.242c.111-.446.51-.758.97-.758h15.024zm-11.973-4.105-.326-6.189h6.42v1.594c-2.468.806-4.612 2.404-6.094 4.595zm9.802-5.189c-.578 0-1.148.042-1.708.122v-1.122c.552 0 1-.447 1-1v-3h1v5zm2.674-11 .618 1.236v8.764h-1v-8c0-.553-.448-1-1-1h-2.615c-3.147 0-6.233.509-9.199 1.505l-.132-2.505zm-.483-2h-15.281l.065-.131c1.194-2.387 3.593-3.869 6.261-3.869h4.056c2.415 0 4.435 1.721 4.899 4zm-6.899-6c0-.552.449-1 1-1s1 .448 1 1zm3.038-2.189c-.133-.124-.275-.236-.428-.335 2.201-2.899 5.236-5.064 8.698-6.206.001.006.002.011.003.017-.248.242-.37.599-.28.954l.168.673zm43.962-12.656c-11.394 1.959-22.59 5.146-33.31 9.482l-.499-1.995c10.934-3.807 22.267-6.65 33.699-8.455l.11-.016z"/><path d="m55.261 13.501 1.731-1.002c-2.676-4.625-7.654-7.499-12.992-7.499v2c4.626 0 8.941 2.491 11.261 6.501z"/><path d="m42.141 7.132-.282-1.98c-.723.104-1.444.262-2.145.471l.571 1.916c.607-.182 1.231-.318 1.856-.407z"/><path d="m42 33.414c.645-.646 1-1.503 1-2.414s-.355-1.769-1-2.414l-1.293-1.293-1.414 1.414 1.292 1.293c.268.268.415.622.415 1s-.147.732-.414 1l-.586.586c-.645.646-1 1.503-1 2.414s.355 1.769 1 2.414l.585.586c.268.268.415.622.415 1s-.147.732-.414 1l-.586.586c-.645.646-1 1.503-1 2.414s.355 1.769 1 2.414l1.293 1.293 1.414-1.414-1.292-1.293c-.268-.268-.415-.622-.415-1s.147-.732.414-1l.586-.586c.645-.646 1-1.503 1-2.414s-.355-1.769-1-2.414l-.585-.586c-.268-.268-.415-.622-.415-1s.147-.732.414-1z"/><path d="m48 29.414c.645-.646 1-1.503 1-2.414s-.355-1.769-1-2.414l-1.293-1.293-1.414 1.414 1.292 1.293c.268.268.415.622.415 1s-.147.732-.414 1l-.586.586c-.645.646-1 1.503-1 2.414s.355 1.769 1 2.414l.585.586c.268.268.415.622.415 1s-.147.732-.414 1l-.586.586c-.645.646-1 1.503-1 2.414s.355 1.769 1 2.414l1.293 1.293 1.414-1.414-1.292-1.293c-.268-.268-.415-.622-.415-1s.147-.732.414-1l.586-.586c.645-.646 1-1.503 1-2.414s-.355-1.769-1-2.414l-.585-.586c-.268-.268-.415-.622-.415-1s.147-.732.414-1z"/><path d="m54 33.414c.645-.646 1-1.503 1-2.414s-.355-1.769-1-2.414l-1.293-1.293-1.414 1.414 1.292 1.293c.268.268.415.622.415 1s-.147.732-.414 1l-.586.586c-.645.646-1 1.503-1 2.414s.355 1.769 1 2.414l.585.586c.268.268.415.622.415 1s-.147.732-.414 1l-.586.586c-.645.646-1 1.503-1 2.414s.355 1.769 1 2.414l1.293 1.293 1.414-1.414-1.292-1.293c-.268-.268-.415-.622-.415-1s.147-.732.414-1l.586-.586c.645-.646 1-1.503 1-2.414s-.355-1.769-1-2.414l-.585-.586c-.268-.268-.415-.622-.415-1s.147-.732.414-1z"/></g></svg>