<?xml version="1.0" encoding="iso-8859-1"?>
<!-- Generator: Adobe Illustrator 19.0.0, SVG Export Plug-In . SVG Version: 6.00 Build 0)  -->
<svg version="1.1" id="Layer_1" xmlns="http://www.w3.org/2000/svg" xmlns:xlink="http://www.w3.org/1999/xlink" x="0px" y="0px"
	 viewBox="0 0 457.178 457.178" style="enable-background:new 0 0 457.178 457.178;" xml:space="preserve">
<g id="XMLID_481_">
	<g>
		<g>
			<path d="M456.537,379.335l-23.75-85.135c-2.12-7.6-9.111-12.797-17.001-12.652c-43.296,0.831,18.957,0.287-84.115,1.062
				c-8.488,0.064-15.739-5.405-18.359-13.01l-18.677-54.492l31.127,46.082c2.683,3.972,7.162,6.349,11.95,6.349
				c0.037,0,0.073,0,0.109,0l57.615-0.435c7.964-0.06,14.372-6.565,14.312-14.53c-0.06-7.927-6.505-14.313-14.418-14.313
				c-0.037,0-0.074,0-0.111,0.001l-49.884,0.376l-26.799-39.675l28.498,24.637l4.578-0.035l-15.212-42.4
				c-4.01-11.178-16.323-16.989-27.501-12.978l-18.368,6.59c-6.674,8.55-17.204,22.066-27.923,35.93l43.196,95.971
				c3.448,7.66,11.552,10.192,19.998,10.536c3.416,0.139,35.737,0.015,77.246-0.805l20.148,72.226
				c2.57,9.21,12.117,14.587,21.32,12.018C453.724,398.086,459.105,388.541,456.537,379.335z"/>
			<path d="M433.204,418.075h-51.578v-61.16l9.674-0.05c8.275-0.043,14.949-6.787,14.906-15.062
				c-0.043-8.249-6.743-14.906-14.982-14.906c-0.026,0-0.053,0-0.08,0l-87.718,0.457l-48.355-106.877
				c-6.472,8.405-12.456,16.884-22.033,24.004l47.092,104.085c2.427,5.364,7.769,8.807,13.651,8.807c0.026,0,0.053,0,0.079,0
				l22.12-0.115v60.818h-51.577c-8.275,0-14.984,6.708-14.984,14.984c0,8.275,6.708,14.984,14.984,14.984h168.801
				c8.275,0,14.984-6.708,14.984-14.984C448.188,424.783,441.479,418.075,433.204,418.075z"/>
			<circle cx="104.49" cy="44.919" r="35.785"/>
			<path d="M112.656,258.943l2.836-34.504c-10.015-3.538-34.113-12.051-43.636-15.416c-6.03-2.13-10.207-7.199-11.505-13.012
				l-11.812-53.63l24.952,46.594c2.047,3.823,5.449,6.743,9.538,8.187l72.926,25.762c9.06,3.2,18.992-1.551,22.19-10.605
				c3.199-9.057-1.548-18.991-10.605-22.19l-66.57-23.517L79.2,125.961l25.033,25.994l16.731,5.91l0.322-3.922l27.072,12.148
				c3.941,1.768,8.417,2.013,12.553,0.653l35.971-11.83c7.36-20.82,17.031-35.333,26.888-45.443
				c-0.084,0.026-0.17,0.042-0.254,0.069l-67.067,22.059l-34.112-15.307c-3.178-9.719-11.925-17.079-22.755-17.97l-46.545-3.826
				c-14.415-1.185-27.061,9.54-28.246,23.955l-8.27,134.139l10.969,71.52L0.748,421.65c-3.048,11.115,3.493,22.597,14.608,25.644
				c11.108,3.047,22.596-3.489,25.644-14.608l27.918-101.827c0.775-2.827,0.946-5.785,0.501-8.682l-10.133-66.072l8.119,0.667
				l24.894,67.876l-20.796,98.198c-2.388,11.276,4.817,22.352,16.092,24.74c11.284,2.388,22.353-4.824,24.74-16.092l22.04-104.072
				c0.813-3.838,0.527-7.827-0.823-11.51L112.656,258.943z"/>
			<path d="M239.976,220.529c21.414-27.924,48.279-62.222,48.279-62.222v-0.001c14.699-6.934,21.918-23.998,16.349-39.521
				c-5.296-14.762-20.418-23.232-35.413-20.607c-0.019,0.001-33.428,1.4-55.155,46.489l-0.005-0.014c0,0-0.009,0.028-0.022,0.069
				c-3.388,7.041-6.495,15.135-9.142,24.465c-3.509,8.321-7.88,17.636-12.859,26.06c2.558,6.851,2.82,14.603,0.193,22.037
				c-5.941,16.819-24.392,25.636-41.211,19.695l-8.66-3.059c-21.363,21.246-7.404,55.539,1.723,68.658
				c0,0-4.318-31.353,15.834-41.227c9.248-4.531,21.699-6.951,34.84-11.245C230.312,238.479,237.451,222.549,239.976,220.529z"/>
		</g>
	</g>
</g>
<g>
</g>
<g>
</g>
<g>
</g>
<g>
</g>
<g>
</g>
<g>
</g>
<g>
</g>
<g>
</g>
<g>
</g>
<g>
</g>
<g>
</g>
<g>
</g>
<g>
</g>
<g>
</g>
<g>
</g>
</svg>
