<?xml version="1.0" encoding="iso-8859-1"?>
<!-- Generator: Adobe Illustrator 19.0.0, SVG Export Plug-In . SVG Version: 6.00 Build 0)  -->
<svg version="1.1" id="Capa_1" xmlns="http://www.w3.org/2000/svg" xmlns:xlink="http://www.w3.org/1999/xlink" x="0px" y="0px"
	 viewBox="0 0 512.001 512.001" style="enable-background:new 0 0 512.001 512.001;" xml:space="preserve">
<path style="fill:#8CBCD6;" d="M360.424,101.274c0.318-1.68,0.492-3.411,0.492-5.183c0-15.286-12.392-27.678-27.678-27.678
	S305.56,80.805,305.56,96.091c0,9.801,5.099,18.406,12.785,23.324c-6.473,8.198-10.347,18.543-10.347,29.8
	c0,26.588,21.553,48.141,48.141,48.141c26.588,0,48.141-21.553,48.141-48.141C404.281,124.073,385.003,103.444,360.424,101.274z"/>
<g>
	<path style="fill:#FFD2C0;" d="M198.686,217.338l-75.69,35.253c-5.874,2.713-12.763,1.986-17.941-1.893l-17.751-13.3
		l-45.798,19.393L16,201.577l45.798-19.393l8.4-12.34c3.479-5.111,8.282-9.181,13.894-11.773l71.768-33.442
		c16.064-7.421,35.103-0.414,42.524,15.65l15.953,34.535C221.757,190.879,214.75,209.918,198.686,217.338z"/>
	<path style="fill:#FFD2C0;" d="M313.313,217.338l75.69,35.253c5.874,2.713,12.763,1.986,17.941-1.893l17.751-13.3l45.798,19.393
		l25.506-55.214l-45.798-19.393l-8.4-12.34c-3.479-5.111-8.282-9.181-13.894-11.773l-71.768-33.442
		c-16.064-7.421-35.103-0.414-42.523,15.65l-15.953,34.535C290.242,190.879,297.249,209.918,313.313,217.338z"/>
</g>
<path style="fill:#6E7093;" d="M276,132.01c-0.14-0.01-0.27-0.02-0.41-0.03c-0.77-0.07-1.54-0.14-2.31-0.19
	c-0.91-0.06-1.82-0.11-2.73-0.16c-0.83-0.04-1.67-0.07-2.51-0.09c-1.01-0.03-2.03-0.04-3.04-0.04h-18c-65.17,0-118,52.83-118,118
	v166.634C129,434.286,143.715,449,161.866,449h188.268C368.286,449,383,434.285,383,416.134V249.5
	C383,188.04,336.02,137.56,276,132.01z M341.25,332.92c0,43.4-35.18,78.58-78.58,78.58h-13.34c-43.4,0-78.58-35.18-78.58-78.58
	v-30.21c2.72,0.19,5.47,0.29,8.25,0.29c46.37,0,86.22-27.93,103.63-67.89c1.71,23.14,21.04,41.39,44.62,41.39
	c4.89,0,9.6-0.78,14-2.24V332.92z"/>
<path style="fill:#4E5173;" d="M275.999,132.01c-0.14-0.01-0.27-0.02-0.41-0.03c-0.77-0.07-1.54-0.14-2.31-0.19
	c-0.91-0.06-1.82-0.11-2.73-0.16c-0.83-0.04-1.67-0.07-2.51-0.09c-1.01-0.03-2.03-0.04-3.04-0.04h-1.807
	c0.807,0,1.623,0.01,2.43,0.04c0.671,0.02,1.343,0.05,2.006,0.09c0.727,0.05,1.455,0.1,2.182,0.16c0.615,0.05,1.231,0.12,1.846,0.19
	c0.112,0.01,0.216,0.02,0.328,0.03c47.969,5.55,85.516,56.03,85.516,117.49v166.634c0,18.152-11.76,32.866-26.267,32.866h18.901
	c18.151,0,32.865-14.715,32.865-32.866V249.5C382.999,188.04,336.02,137.56,275.999,132.01z"/>
<path style="fill:#FFD2C0;" d="M286,442.587v-34.608c-7.37,2.288-15.204,3.521-23.326,3.521h-13.347
	c-8.122,0-15.956-1.233-23.326-3.521v34.608c-41.264,7.48-77.253,30.105-102,61.913h264
	C363.253,472.692,327.264,450.067,286,442.587z"/>
<path style="fill:#EAA28F;" d="M249.326,411.5c-8.122,0-15.957-1.233-23.327-3.521v19.999c7.371,2.288,15.206,3.522,23.33,3.522
	h13.34c8.124,0,15.959-1.233,23.33-3.522v-19.999c-7.37,2.288-15.204,3.521-23.326,3.521H249.326z"/>
<path style="fill:#FFD2C0;" d="M341.25,274.26v58.66c0,43.4-35.18,78.58-78.58,78.58h-13.34c-43.4,0-78.58-35.18-78.58-78.58v-30.21
	c2.72,0.19,5.47,0.29,8.25,0.29c46.37,0,86.22-27.93,103.63-67.89c1.71,23.14,21.04,41.39,44.62,41.39
	C332.14,276.5,336.85,275.72,341.25,274.26z"/>
<path style="fill:#EAA28F;" d="M327.249,276.5c-3.731,0-7.355-0.46-10.82-1.321v57.741c0,43.4-24.937,78.58-55.702,78.58h1.942
	c43.4,0,78.58-35.18,78.58-78.58v-58.66C336.85,275.72,332.14,276.5,327.249,276.5z"/>
<g>
	<path style="fill:#C8E7F7;" d="M377.865,156.387c0.599-3.115,0.816-6.357,0.592-9.671c-1.399-20.747-19.352-36.43-40.099-35.031
		c-3.64,0.246-7.119,1.01-10.383,2.201c-1.374-9.519-6.685-17.639-14.148-22.798c-5.219-21.352-25.159-36.513-47.84-34.983
		c-12.201,0.823-22.963,6.333-30.67,14.645c-7.764-2.269-16.051-3.236-24.591-2.66c-33.999,2.293-60.752,28.263-65.266,60.731
		c-0.496,0.012-0.993,0.029-1.494,0.063c-19.294,1.301-33.88,17.997-32.578,37.291c1.301,19.294,17.997,33.88,37.291,32.578
		c7.411-0.5,14.122-3.277,19.51-7.595c13.71,12.342,32.195,19.351,52.054,18.012c11.049-0.745,21.33-3.996,30.335-9.152
		c9.248,15.426,26.597,25.251,45.774,23.957c11.444-0.772,21.705-5.387,29.636-12.488c6.801,15.273,22.596,25.432,40.247,24.242
		c22.605-1.525,39.693-21.085,38.168-43.69C403.286,175.465,392.466,161.868,377.865,156.387z"/>
	<circle style="fill:#C8E7F7;" cx="395.349" cy="64.02" r="18.471"/>
	<circle style="fill:#C8E7F7;" cx="111.309" cy="96.09" r="18.471"/>
	<circle style="fill:#C8E7F7;" cx="190.219" cy="25.971" r="18.471"/>
</g>
<path d="M498.925,194.674l-43.768-18.539l-7.159-10.517c-4.246-6.235-10.105-11.2-16.921-14.347l-19.758-9.204
	c-2.994-23.136-20.339-42.02-42.918-47.123c-0.607-18.87-16.146-34.034-35.161-34.034c-8.209,0-15.984,2.827-22.16,7.849
	c-10.657-13.449-27.489-21.357-45.593-20.132c-12.134,0.816-23.48,5.672-32.402,13.79c-7.446-1.718-15.112-2.328-22.859-1.81
	c-34.761,2.341-63.803,27.736-71.147,61.315c-9.742,1.681-18.268,6.658-24.5,13.668l-33.633,15.67
	c-6.839,3.158-12.698,8.123-16.945,14.359l-7.158,10.516l-43.768,18.539c-3.814,1.615-5.596,6.017-3.981,9.831
	c1.212,2.859,3.988,4.577,6.91,4.577c0.975,0,1.967-0.191,2.922-0.596l45.8-19.4c1.327-0.562,2.464-1.494,3.274-2.686l8.4-12.339
	c2.716-3.989,6.463-7.164,10.858-9.193l17.124-7.978c-0.525,3.173-0.699,6.453-0.474,9.797c0.699,10.33,5.008,19.638,11.738,26.639
	c-7.702,1.67-14.734,5.572-20.342,11.407c-2.871,2.986-2.776,7.734,0.21,10.604c1.455,1.398,3.327,2.093,5.196,2.093
	c1.969,0,3.936-0.771,5.408-2.303c4.789-4.983,11.232-7.728,18.143-7.728c1.477,0,2.927,0.126,4.347,0.372
	c-4.222,11.937-6.57,24.391-7.018,37.203l-1.728,0.803c-3.387,1.562-7.334,1.149-10.305-1.081l-17.76-13.3
	c-2.136-1.599-4.963-1.945-7.42-0.903l-45.79,19.39c-3.814,1.615-5.597,6.017-3.982,9.831c1.211,2.86,3.988,4.578,6.91,4.578
	c0.975,0,1.967-0.191,2.921-0.596l41.821-17.709l14.303,10.711c6.051,4.541,13.73,6.049,20.942,4.307V416.13
	c0,22.26,18.11,40.37,40.37,40.37h5.542c-18.841,11.104-35.611,25.759-49.332,43.395c-2.544,3.27-1.955,7.981,1.314,10.525
	c3.271,2.545,7.982,1.955,10.525-1.314c24.227-31.14,58.824-52.143,97.419-59.139c3.568-0.647,6.162-3.754,6.162-7.38v-25.041
	c0.589,0.109,1.183,0.19,1.774,0.288c0.477,0.079,0.953,0.162,1.433,0.232c0.902,0.133,1.809,0.242,2.716,0.346
	c0.491,0.056,0.979,0.121,1.472,0.17c0.963,0.094,1.93,0.159,2.898,0.221c0.436,0.028,0.869,0.069,1.307,0.09
	c1.406,0.068,2.815,0.107,4.227,0.107h0.004h13.34h0.004c1.412,0,2.821-0.039,4.227-0.107c0.438-0.021,0.871-0.062,1.307-0.09
	c0.968-0.062,1.934-0.127,2.898-0.221c0.493-0.048,0.981-0.113,1.472-0.17c0.907-0.104,1.813-0.213,2.716-0.346
	c0.48-0.071,0.956-0.154,1.433-0.232c0.591-0.097,1.185-0.178,1.774-0.288v25.041c0,3.626,2.594,6.733,6.162,7.38
	c38.594,6.996,73.191,27.999,97.418,59.139c1.479,1.9,3.689,2.895,5.925,2.895c1.609,0,3.231-0.516,4.6-1.581
	c3.269-2.543,3.857-7.255,1.314-10.525c-13.721-17.636-30.491-32.291-49.332-43.395h5.542c22.26,0,40.37-18.11,40.37-40.37V261.008
	c7.203,1.741,14.886,0.235,20.935-4.305l14.31-10.716l41.821,17.709c0.955,0.404,1.946,0.596,2.921,0.596
	c2.921,0,5.699-1.718,6.91-4.578c1.615-3.814-0.167-8.215-3.982-9.831l-45.79-19.39c-2.458-1.042-5.284-0.696-7.42,0.903
	l-17.767,13.305c-2.965,2.225-6.912,2.636-10.276,1.087l-1.748-0.813c-0.112-3.137-0.343-6.262-0.686-9.358
	c7.579-4.863,13.522-11.634,17.356-19.477c1.264,0.858,2.734,1.289,4.207,1.289c1.871,0,3.744-0.696,5.199-2.095
	c2.985-2.872,3.077-7.62,0.205-10.604c-1.552-1.614-3.234-3.072-5.009-4.393c0.325-2.884,0.4-5.826,0.198-8.799
	c-1.134-16.932-11.1-31.957-25.913-39.724c0.094-1.671,0.083-3.344-0.006-5.011l38.802,18.075c4.372,2.019,8.118,5.194,10.834,9.181
	l8.4,12.34c0.811,1.191,1.948,2.124,3.274,2.686l45.8,19.4c0.955,0.404,1.946,0.596,2.922,0.596c2.921,0,5.698-1.718,6.909-4.577
	C504.521,200.691,502.739,196.29,498.925,194.674z M393.757,133.887l-13.137-6.119c-2.532-4.676-5.897-8.915-10.021-12.517
	c-2.905-2.537-6.072-4.659-9.427-6.351C375.991,110.736,388.306,120.588,393.757,133.887z M333.24,75.91
	c11.127,0,20.18,9.053,20.18,20.18c0,1.227-0.124,2.497-0.367,3.776c-0.397,2.082,0.105,4.235,1.383,5.926
	c0.136,0.179,0.282,0.348,0.432,0.513c-5.411-1.759-11.158-2.492-17.003-2.099c-1.503,0.099-3.002,0.275-4.49,0.527
	c-0.031-0.097-0.056-0.195-0.091-0.292c-1.605-4.337-3.916-8.281-6.763-11.732c-0.112-0.136-0.228-0.269-0.342-0.404
	c-0.376-0.444-0.761-0.88-1.155-1.307c-0.451-0.494-0.919-0.973-1.395-1.445c-0.101-0.099-0.201-0.2-0.303-0.299
	c-0.941-0.915-1.911-1.802-2.941-2.627c-0.47-1.57-1.011-3.103-1.612-4.6C322.535,78.146,327.715,75.91,333.24,75.91z M218.5,436.44
	c-6.207,1.358-12.309,3.05-18.285,5.06H161.87c-13.989,0-25.37-11.381-25.37-25.37V249.5c0-15.03,2.944-29.531,8.757-43.18
	c0.345,0.009,0.688,0.002,1.032,0.002c0.211,0,0.422,0.004,0.633,0.001c0.756-0.011,1.51-0.038,2.263-0.09
	c6.61-0.446,12.924-2.391,18.554-5.683c1.404,1.087,2.847,2.104,4.309,3.087c3.46,2.326,7.066,4.374,10.807,6.1
	c0.799,0.368,1.608,0.709,2.418,1.049c0.269,0.113,0.533,0.239,0.803,0.349c10.839,4.413,22.624,6.332,34.665,5.519
	c9.607-0.643,18.796-2.975,27.405-6.946c0.643,0.825,1.313,1.621,1.996,2.404c0.163,0.187,0.326,0.373,0.491,0.557
	c0.686,0.767,1.385,1.519,2.107,2.244c0.057,0.057,0.117,0.111,0.174,0.169c0.68,0.677,1.379,1.331,2.089,1.97
	c0.18,0.162,0.36,0.324,0.542,0.484c0.76,0.667,1.533,1.316,2.326,1.939c0.107,0.085,0.218,0.164,0.326,0.248
	c0.716,0.555,1.446,1.09,2.187,1.608c0.192,0.135,0.384,0.271,0.578,0.403c0.826,0.564,1.665,1.108,2.519,1.627
	c0.149,0.091,0.302,0.176,0.452,0.265c0.754,0.448,1.518,0.877,2.291,1.29c0.198,0.106,0.395,0.214,0.595,0.318
	c0.883,0.458,1.778,0.893,2.684,1.304c0.186,0.084,0.373,0.162,0.56,0.244c0.794,0.349,1.596,0.68,2.406,0.993
	c0.194,0.075,0.386,0.154,0.581,0.226c0.933,0.349,1.876,0.672,2.829,0.971c0.214,0.067,0.429,0.129,0.643,0.193
	c0.375,0.113,0.748,0.233,1.126,0.338c-0.153,0.136-0.296,0.284-0.438,0.433c-0.034,0.035-0.071,0.066-0.104,0.102
	c-0.243,0.264-0.462,0.553-0.667,0.854c-0.051,0.075-0.099,0.151-0.148,0.228c-0.199,0.316-0.385,0.644-0.538,0.995
	c-16.776,38.505-54.754,63.386-96.754,63.386c-2.544,0-5.145-0.091-7.727-0.272c-0.086-0.006-0.171-0.002-0.256-0.005
	c-0.089-0.003-0.176-0.013-0.266-0.013h-13.417c-4.142,0-7.5,3.358-7.5,7.5s3.358,7.5,7.5,7.5h5.917v22.71
	c0,36.602,22.973,67.922,55.25,80.349V436.44z M249.33,404c-1.105,0-2.202-0.033-3.294-0.084c-0.3-0.014-0.599-0.033-0.899-0.05
	c-0.862-0.05-1.72-0.115-2.574-0.196c-0.248-0.023-0.496-0.044-0.744-0.07c-2.246-0.237-4.461-0.577-6.64-1.019
	c-0.124-0.025-0.248-0.052-0.373-0.078c-1.076-0.224-2.145-0.469-3.203-0.741c-0.009-0.002-0.018-0.004-0.027-0.007
	c-30.632-7.904-53.328-35.769-53.328-68.836v-22.422c0.251,0.001,0.501,0.002,0.75,0.002c41.505,0,79.57-21.272,101.487-55.492
	c8.357,16.676,25.386,28.251,44.87,28.958c0.629,0.023,1.26,0.034,1.893,0.034c2.186,0,4.356-0.134,6.5-0.4v49.32
	c0,33.067-22.696,60.932-53.328,68.836c-0.009,0.002-0.018,0.005-0.027,0.007c-1.058,0.272-2.127,0.517-3.203,0.741
	c-0.124,0.026-0.248,0.053-0.372,0.078c-2.179,0.442-4.394,0.782-6.64,1.019c-0.247,0.026-0.496,0.046-0.744,0.07
	c-0.853,0.081-1.711,0.146-2.573,0.196c-0.299,0.017-0.599,0.037-0.899,0.05c-1.093,0.05-2.19,0.084-3.294,0.084L249.33,404
	L249.33,404z M375.5,416.13c0,13.989-11.381,25.37-25.37,25.37h-38.345c-5.976-2.011-12.078-3.703-18.285-5.06v-23.17
	c32.277-12.427,55.25-43.747,55.25-80.349v-58.66c0-2.409-1.157-4.672-3.111-6.082c-1.953-1.411-4.466-1.796-6.752-1.037
	c-3.715,1.233-7.63,1.858-11.637,1.858c-0.606,0-1.209-0.015-1.809-0.044c-18.595-0.906-33.948-15.689-35.331-34.399
	c-0.028-0.383-0.095-0.756-0.179-1.122c-0.02-0.085-0.039-0.169-0.062-0.253c-0.095-0.356-0.208-0.704-0.352-1.037
	c-0.016-0.036-0.035-0.069-0.051-0.105c-0.087-0.194-0.176-0.387-0.279-0.571c0.132,0.009,0.265,0.012,0.397,0.02
	c0.151,0.009,0.302,0.015,0.453,0.022c1.048,0.054,2.101,0.083,3.159,0.079c0.105,0,0.211-0.004,0.317-0.005
	c1.1-0.01,2.204-0.047,3.312-0.12c0.011-0.001,0.023,0,0.034-0.001c2.951-0.201,5.84-0.647,8.67-1.278
	c6.481-1.445,12.613-3.975,18.19-7.562c0.583,0.83,1.193,1.637,1.824,2.425c0.206,0.257,0.428,0.5,0.639,0.753
	c0.435,0.521,0.87,1.043,1.326,1.544c0.261,0.288,0.537,0.56,0.805,0.841c0.426,0.447,0.851,0.895,1.294,1.324
	c0.294,0.285,0.599,0.557,0.9,0.834c0.437,0.404,0.874,0.807,1.324,1.193c0.317,0.272,0.644,0.532,0.968,0.796
	c0.454,0.369,0.908,0.736,1.374,1.089c0.336,0.254,0.678,0.497,1.02,0.742c0.473,0.339,0.949,0.673,1.434,0.995
	c0.35,0.233,0.705,0.457,1.061,0.68c0.493,0.309,0.99,0.612,1.494,0.904c0.363,0.21,0.729,0.414,1.097,0.615
	c0.513,0.28,1.031,0.55,1.555,0.811c0.373,0.186,0.746,0.369,1.124,0.545c0.534,0.25,1.074,0.488,1.617,0.718
	c0.379,0.161,0.758,0.322,1.142,0.473c0.556,0.22,1.118,0.424,1.682,0.623c0.383,0.135,0.764,0.273,1.15,0.399
	c0.58,0.189,1.166,0.358,1.754,0.525c0.381,0.108,0.76,0.222,1.144,0.321c0.608,0.157,1.223,0.291,1.838,0.425
	c0.373,0.081,0.743,0.17,1.118,0.243c0.652,0.125,1.31,0.224,1.969,0.323c0.346,0.052,0.688,0.115,1.035,0.16
	c0.75,0.096,1.507,0.161,2.264,0.222c0.261,0.021,0.52,0.056,0.782,0.072c1.014,0.064,2.033,0.1,3.057,0.1
	c0.009,0,0.017-0.001,0.026-0.001c1.068,0,2.141-0.036,3.217-0.108c0.762-0.052,1.52-0.124,2.274-0.211
	c0.25-0.029,0.497-0.068,0.746-0.1c0.503-0.066,1.006-0.132,1.506-0.213c0.294-0.048,0.585-0.105,0.877-0.158
	c0.452-0.082,0.903-0.165,1.352-0.259c0.306-0.064,0.609-0.136,0.914-0.206c0.272-0.063,0.547-0.117,0.818-0.184
	c0.173,2.529,0.26,5.074,0.26,7.62L375.5,416.13L375.5,416.13z M396.917,192.549c0.924,13.587-6.376,26.272-18.598,32.316
	c-0.267,0.132-0.539,0.251-0.809,0.375c-0.227,0.105-0.451,0.216-0.679,0.315c-0.164,0.071-0.332,0.133-0.496,0.201
	c-0.339,0.141-0.677,0.284-1.02,0.413c-0.041,0.015-0.082,0.028-0.123,0.043c-0.469,0.175-0.941,0.342-1.417,0.495
	c-0.197,0.064-0.398,0.116-0.596,0.176c-2.406,0.725-4.893,1.188-7.442,1.363c-0.873,0.059-1.743,0.083-2.609,0.074
	c-12.985-0.144-24.945-7.89-30.285-19.882c-0.609-1.368-1.605-2.503-2.838-3.285c-0.74-0.469-1.565-0.81-2.444-0.998
	c-0.278-0.059-0.557-0.1-0.837-0.128c-0.089-0.009-0.178-0.008-0.268-0.014c-0.155-0.01-0.31-0.024-0.465-0.024
	c-0.039,0-0.078,0.005-0.117,0.005c-0.078,0.001-0.154,0.007-0.232,0.011c-0.195,0.009-0.389,0.025-0.582,0.049
	c-0.082,0.01-0.164,0.021-0.246,0.034c-0.209,0.033-0.416,0.076-0.621,0.127c-0.054,0.013-0.109,0.023-0.163,0.038
	c-0.257,0.07-0.511,0.153-0.759,0.25c-0.053,0.021-0.105,0.046-0.157,0.068c-0.194,0.08-0.384,0.168-0.571,0.265
	c-0.076,0.039-0.151,0.081-0.226,0.123c-0.167,0.094-0.33,0.195-0.491,0.302c-0.068,0.045-0.137,0.089-0.203,0.137
	c-0.219,0.157-0.432,0.322-0.635,0.504c-7.025,6.29-15.721,9.953-25.141,10.595c-15.795,1.062-30.673-6.729-38.835-20.335
	c-2.101-3.502-6.618-4.679-10.159-2.65c-8.344,4.779-17.467,7.529-27.118,8.175c-17.183,1.155-33.704-4.558-46.528-16.102
	c-2.73-2.456-6.84-2.576-9.708-0.278c-4.39,3.519-9.689,5.579-15.336,5.961c-1.992,0.136-3.999,0.047-5.973-0.252
	c-0.117-0.018-0.235-0.028-0.352-0.048c-12.653-2.066-22.097-12.468-22.965-25.292c-1.02-15.136,10.467-28.286,25.543-29.31
	c0.402-0.024,0.796-0.04,1.198-0.048c3.684-0.076,6.767-2.815,7.274-6.464c4.1-29.452,28.638-52.28,58.341-54.281
	c7.492-0.498,14.889,0.3,21.984,2.375c2.728,0.797,5.671-0.014,7.604-2.097c6.72-7.243,15.839-11.597,25.677-12.258
	c12.959-0.866,24.997,4.741,32.673,14.298c-2.356-0.26-4.753-0.322-7.17-0.158c-14.582,0.983-27.651,9.748-34.109,22.873
	c-1.829,3.717-0.298,8.212,3.418,10.04c3.717,1.828,8.212,0.297,10.041-3.418c4.102-8.337,12.401-13.904,21.659-14.529
	c8.449-0.565,16.52,3.084,21.775,9.348c0.174,0.209,0.346,0.418,0.513,0.631c0.145,0.184,0.282,0.376,0.422,0.564
	c0.398,0.539,0.779,1.089,1.134,1.656c0.029,0.046,0.058,0.091,0.086,0.137c0.688,1.115,1.294,2.28,1.809,3.486
	c0.002,0.005,0.004,0.009,0.006,0.014c0.87,2.044,1.483,4.204,1.806,6.431c0.324,2.235,1.638,4.205,3.576,5.363
	c1.939,1.158,4.297,1.381,6.418,0.606c2.694-0.983,5.487-1.576,8.313-1.763c16.592-1.123,30.993,11.465,32.112,28.045
	c0.172,2.583,0.012,5.199-0.476,7.779c-0.677,3.582,1.32,7.133,4.734,8.414C387.529,168.027,396.04,179.46,396.917,192.549z"/>
<path d="M207.529,117.291c-13.684,0-24.816,11.132-24.816,24.815c0,13.684,11.132,24.816,24.816,24.816c4.142,0,7.5-3.358,7.5-7.5
	s-3.358-7.5-7.5-7.5c-5.413,0-9.816-4.403-9.816-9.816c0-5.412,4.403-9.815,9.816-9.815c5.412,0,9.815,4.403,9.815,9.815
	c0,4.142,3.358,7.5,7.5,7.5s7.5-3.358,7.5-7.5C232.345,128.423,221.212,117.291,207.529,117.291z"/>
<path d="M376.879,71.516c4.142,0,7.5-3.358,7.5-7.5c0-6.049,4.922-10.971,10.971-10.971s10.971,4.922,10.971,10.971
	s-4.922,10.971-10.971,10.971c-4.142,0-7.5,3.358-7.5,7.5s3.358,7.5,7.5,7.5c14.321,0,25.971-11.65,25.971-25.971
	s-11.65-25.971-25.971-25.971s-25.971,11.65-25.971,25.971C369.379,68.158,372.737,71.516,376.879,71.516z"/>
<path d="M111.308,122.063c4.142,0,7.5-3.358,7.5-7.5s-3.358-7.5-7.5-7.5c-6.049,0-10.971-4.922-10.971-10.971
	s4.922-10.971,10.971-10.971c6.05,0,10.972,4.922,10.972,10.971c0,4.142,3.358,7.5,7.5,7.5c4.142,0,7.5-3.358,7.5-7.5
	c0-14.321-11.651-25.971-25.972-25.971s-25.971,11.65-25.971,25.971S96.987,122.063,111.308,122.063z"/>
<path d="M190.213,51.943c4.142,0,7.5-3.358,7.5-7.5s-3.358-7.5-7.5-7.5c-6.049,0-10.971-4.922-10.971-10.972
	c0-6.049,4.922-10.971,10.971-10.971c2.931,0,5.686,1.141,7.758,3.213c2.072,2.073,3.213,4.828,3.213,7.758
	c0,4.142,3.358,7.5,7.5,7.5s7.5-3.358,7.5-7.5c0-6.937-2.701-13.458-7.607-18.364C203.673,2.702,197.151,0,190.213,0
	c-14.321,0-25.971,11.65-25.971,25.971S175.893,51.943,190.213,51.943z"/>
<g>
</g>
<g>
</g>
<g>
</g>
<g>
</g>
<g>
</g>
<g>
</g>
<g>
</g>
<g>
</g>
<g>
</g>
<g>
</g>
<g>
</g>
<g>
</g>
<g>
</g>
<g>
</g>
<g>
</g>
</svg>
